# xmcd
#
# Track frame offsets: 
#        182
#        23680
#        35710
#        46962
#        60880
#        80947
#        91810
#        104142
#        114932
#        131602
#        141705
#        168430
#        178997
#        189090
#        202595
#        214995
#        226002
#        237997
#        252630
#        263820
#        283310
#        295895
#
# Disc length: 4087 seconds
#
# Revision: 3
# Processed by: cddbd v1.5.2PL0 Copyright (c) Steve Scherf et al.
# Submitted via: ExactAudioCopy v0.99pb3
#
DISCID=490ff516
DTITLE=Various Artist - Willie Dixon's Blues Dixonary Vol.5
DYEAR=1900
DGENRE=Blues
TTITLE0=Muddy Waters - My Captain
TTITLE1=Muddy Waters - Same Thing
TTITLE2=Buddy Guy - I Dig Your Wig (unedited)
TTITLE3=Koko Taylor - I Got What It Takes
TTITLE4=Willie Dixon - Weak Brain, Narrow Mind
TTITLE5=Koko Taylor - Whatever I Am, You Made Me
TTITLE6=Koko Taylor - Don't Mess With The Messer
TTITLE7=Buddy Guy - Crazy Love (Crazy Music)
TTITLE8=Buddy Guy - Every Girl I See
TTITLE9=Buddy Guy - Too Many Ways
TTITLE10=Muddy Waters - Same Thing
TTITLE11=Koko Taylor - Blue Heaven
TTITLE12=Koko Taylor - (I Got) All You Need
TTITLE13=Koko Taylor and Willie Dixon - Wang Dang Doodle
TTITLE14=Little Milton - Country Style
TTITLE15=Koko Taylor and Willie Dixon - What Came First, The Egg Or The 
TTITLE15=Hen
TTITLE16=Buddy Guy - Goin' Home
TTITLE17=Buddy Guy - I Cry And Sing The Blues
TTITLE18=Koko Taylor and Willie Dixon - Fire
TTITLE19=Koko Taylor and Willie Dixon - Insane Asylum
TTITLE20=Muddy Waters - When The Eagle Flies
TTITLE21=Etta James - Fire
EXTD=
EXTT0=
EXTT1=
EXTT2=
EXTT3=
EXTT4=
EXTT5=
EXTT6=
EXTT7=
EXTT8=
EXTT9=
EXTT10=
EXTT11=
EXTT12=
EXTT13=
EXTT14=
EXTT15=
EXTT16=
EXTT17=
EXTT18=
EXTT19=
EXTT20=
EXTT21=
PLAYORDER=
